<svg width="24" height="24" viewBox="0 0 24 24" fill="none" xmlns="http://www.w3.org/2000/svg">
<path d="M8.33132 4.25765C10.5812 2.87313 13.4188 2.87313 15.6687 4.25765L21.5401 7.87086C23.1265 8.84707 23.1265 11.1529 21.5401 12.1291L15.6687 15.7424C13.4188 17.1269 10.5812 17.1269 8.33132 15.7423L2.45986 12.1291C0.873518 11.1529 0.87352 8.84706 2.45986 7.87085L8.33132 4.25765Z" stroke="currentColor" stroke-width="1.5" stroke-linecap="round" stroke-linejoin="round"/>
<path d="M20 14L20 17.2105C20 18.3557 19.348 19.401 18.3196 19.9048L14.6392 21.7074C12.9742 22.5228 11.0258 22.5228 9.36084 21.7074L5.68042 19.9047C4.65197 19.401 4.00001 18.3557 4 17.2106L4 14" stroke="currentColor" stroke-width="1.5" stroke-linecap="round" stroke-linejoin="round"/>
<path d="M22 19.5C22 16.0714 22 12.5 22 12.5" stroke="currentColor" stroke-width="1.5" stroke-linecap="round"/>
</svg>
